<svg id="Layer_1" data-name="Layer 1" xmlns="http://www.w3.org/2000/svg" xmlns:xlink="http://www.w3.org/1999/xlink" viewBox="0 0 1299.67 1299.67"><defs><style>.cls-1{fill:none;stroke-width:2px;stroke:url(#radial-gradient);}</style><radialGradient id="radial-gradient" cx="649.83" cy="649.83" r="649.83" gradientUnits="userSpaceOnUse"><stop offset="0" stop-color="#fff" stop-opacity="0"/><stop offset="0.04" stop-color="#fff" stop-opacity="0.03"/><stop offset="0.11" stop-color="#fff" stop-opacity="0.12"/><stop offset="0.19" stop-color="#fff" stop-opacity="0.27"/><stop offset="0.29" stop-color="#fff" stop-opacity="0.47"/><stop offset="0.4" stop-color="#fff" stop-opacity="0.73"/><stop offset="0.5" stop-color="#fff"/><stop offset="0.68" stop-color="#fff" stop-opacity="0.63"/><stop offset="0.9" stop-color="#fff" stop-opacity="0.18"/><stop offset="1" stop-color="#fff" stop-opacity="0"/></radialGradient></defs><line class="cls-1" x1="649.83" y1="649.83" x2="649.83" y2="1299.67"/><line class="cls-1" x1="649.83" y1="649.83" x2="850.64" y2="1267.86"/><line class="cls-1" x1="649.83" y1="649.83" x2="1031.8" y2="1175.56"/><line class="cls-1" x1="649.83" y1="649.83" x2="1175.56" y2="1031.8"/><line class="cls-1" x1="649.83" y1="649.83" x2="1267.86" y2="850.64"/><line class="cls-1" x1="649.83" y1="649.83" x2="1299.67" y2="649.83"/><line class="cls-1" x1="649.83" y1="649.83" x2="1267.86" y2="449.02"/><line class="cls-1" x1="649.83" y1="649.83" x2="1175.56" y2="267.87"/><line class="cls-1" x1="649.83" y1="649.83" x2="1031.8" y2="124.11"/><line class="cls-1" x1="649.83" y1="649.83" x2="850.64" y2="31.81"/><line class="cls-1" x1="649.83" y1="649.83" x2="649.83"/><line class="cls-1" x1="649.83" y1="649.83" x2="449.02" y2="31.81"/><line class="cls-1" x1="649.83" y1="649.83" x2="267.87" y2="124.11"/><line class="cls-1" x1="649.83" y1="649.83" x2="124.11" y2="267.87"/><line class="cls-1" x1="649.83" y1="649.83" x2="31.81" y2="449.02"/><line class="cls-1" x1="649.83" y1="649.83" y2="649.83"/><line class="cls-1" x1="649.83" y1="649.83" x2="31.81" y2="850.64"/><line class="cls-1" x1="649.83" y1="649.83" x2="124.11" y2="1031.8"/><line class="cls-1" x1="649.83" y1="649.83" x2="267.87" y2="1175.56"/><line class="cls-1" x1="649.83" y1="649.83" x2="449.02" y2="1267.86"/></svg>